<svg enable-background="new 0 0 1123.39 1363.83" height="348.546087" viewBox="0 0 1123.39 1363.83" width="286.906104" xmlns="http://www.w3.org/2000/svg"><path d="m1070.16 807.44c-2.72-13.72-6.51-27.17-11.92-42.31-5.47-15.33-11.84-30.81-18.94-46-14.45-30.94-31.19-59.25-49.87-84.38 31.17-68.56 43.54-135.08 44.09-138.07l2.36-12.92 1.31-7.7c-1.43-4.92-2.92-9.8-4.48-14.65 0 0-6.51-23.2-17.67-47.13-7.98-18.54-16.99-36.48-27.01-53.81-3.49-6.26-15.06-24.49-17.11-27.53-11.71-17.54-24.53-34.37-38.45-50.45-.86-1-3.38-3.88-3.78-4.33-19.83-22.67-64.98-62.03-64.98-62.03-32.07-25.97-67.76-49.15-106.71-69.24-103.63-53.44-194.51-67.06-203.48-68.3-4.17-.93-8.56-.53-12.5 1.21-105.94 46.71-220.27 57.64-297.53 58.59-55.76.68-100.77-3.59-124.96-6.58l-33.09-5.05.16 263.77 54.97 28.36v420.54l-54.93 25.51v289.37l23.73 1.63 57.51 3.95c46 3.16 92.45 10.87 138.06 22.93 36.78 9.72 73.1 22.27 107.94 37.3 58.82 25.36 98.14 48.67 100.16 49.88l.1.07 26.16 16.4c5.29 3.38 9.26 2.97 15.28 1.18 14.59-4.34 42.21-12.75 55.31-18.07l97.59-36c94.19-34.74 177.9-92.81 242.09-167.94 58.59-68.57 98.02-146.65 117.19-232.07l.01-.04.01-.04 3.97-23.11z" fill="#161717"/><g fill="#c8c3b2"><path d="m1080.21 809.97c-2.78-14-6.64-27.72-12.16-43.17-5.58-15.64-12.08-31.43-19.33-46.93-14.75-31.57-31.83-60.46-50.89-86.1 31.81-69.96 44.43-137.84 44.99-140.89l2.4-13.18 1.34-7.86c-1.46-5.02-2.98-10-4.57-14.95 0 0-6.64-23.68-18.03-48.09-8.14-18.92-17.33-37.23-27.56-54.9-3.56-6.39-15.37-24.99-17.46-28.09-11.95-17.9-25.03-35.07-39.23-51.48-.87-1.02-3.45-3.96-3.85-4.42-20.24-23.13-66.31-63.3-66.31-63.3-32.72-26.5-69.14-50.15-108.89-70.65-105.75-54.56-198.49-68.45-207.64-69.72-4.26-.95-8.74-.54-12.76 1.24-108.1 47.66-224.77 58.82-303.6 59.79-56.9.7-102.83-3.66-127.51-6.72l-33.76-5.15.17 283.44 56.09 28.94v399.53l-56.05 26.03v310.58l24.22 1.66 58.68 4.03c46.94 3.22 94.34 11.09 140.88 23.4 37.53 9.92 74.59 22.73 110.14 38.06 60.02 25.88 100.15 49.66 102.2 50.89l.11.07 26.69 16.74c5.4 3.45 9.45 3.03 15.59 1.2 14.89-4.43 43.07-13.01 56.44-18.44l99.58-36.73c96.11-35.45 181.53-94.71 247.03-171.36 59.78-69.97 100.02-149.64 119.58-236.8l.01-.04.01-.04 4.05-23.58zm-25.54 6.06-3.3 14.9c-18.62 82.99-56.97 158.89-113.97 225.61-62.62 73.28-144.31 129.94-236.26 163.86l-99.98 36.88c-15.52 6.33-44.61 14.23-51.48 16.06-.95.25-1.95.11-2.78-.4-9.09-5.48-64.59-38.48-127.08-65.75-36.73-15.84-75.02-29.07-113.79-39.32-48.13-12.72-97.17-20.86-145.74-24.2l-58.68-4.03v-269.71l56.05-26.03v-431.97l-56.1-28.94-.14-237.18c24.11 3.17 72.74 8.19 134.96 7.46 51.74-.6 102.08-5.1 149.65-13.37 58.95-10.25 113.79-26.35 163.02-47.88l1.7.17c13.3 2.03 101.46 16.91 198.77 67.27 61.39 31.77 114.38 71.25 157.5 117.36 3.09 3.3 6.12 6.64 9.1 10.01.55.63 1.12 1.26 1.67 1.89.42.48.84.97 1.26 1.45 13.59 15.78 26.35 32.44 38.2 49.95 5.89 8.82 11.48 17.84 16.79 27.03 3.76 6.79 7.29 13.74 10.54 20.82 6.45 12.35 11.58 22.72 15.68 31.51 6.22 14.48 11.8 29.33 16.71 44.54l2.68 11.01-2.4 13.18c-.58 3.17-14.35 77.21-49.74 148.84 21.85 27.12 41.23 58.66 57.66 93.82 8.08 17.29 14.12 32.7 18.39 44.67 4.71 13.2 8.41 25.74 11.14 39.5z"/><path d="m990.86 817.39c0-.01.01-.02.01-.04 0 0-26.97-92.59-99.91-161.65 47.1-71.81 64.7-177.31 64.7-177.31-.15-.41-.3-.82-.45-1.23.03-.18.05-.27.05-.27-21.88-61.44-53-111.04-88.33-151.07-128.08-147.14-312.34-170.75-312.34-170.75l-1.29.44c-.45-.09-.9-.19-1.35-.27l-12.8 4.71c-59.55 21.94-121.17 37.33-183.74 45.95-106 12.64-190.73 3.57-190.73 3.57v.44c-.5-.05-.77-.08-.77-.08l.77 1.42-.1 133.69.4.21v1.29l55.66 28.72v508.94l-56.05 26.03v170.69c.13.01.27.02.4.03v1.47c233.74 16.05 383.6 128.85 383.6 128.85s15.83-4.11 30.44-10.17l101.05-37.27c81.42-30.03 154.2-79.99 210.58-145.97 42.7-49.98 81.92-115.62 100.62-198.91-.01.01-.15-.5-.42-1.46zm-442.48 210.73c-31.06-24.98-51.16-42.81-82.06-60.99-.02-33.59.6-562.83.6-562.83l-.4-.13c0-.89 0-1.37 0-1.37l-46.85-23.42c36.73-19.56 162.74-76.65 281.15-12.35v201.79s-101.04-17.79-186.56 32.39v303.73s.14-.31.4-.87v2.37s42.47-99.3 155.92-163.65c49.1-27.85 92.43-18.08 94.38-17.69 7.75 8.34 36.51 43.28 35.79 101.89-.56 45.52-22.09 88.26-57.78 116.51-.1.08-.19.15-.29.23-62.07 51.31-130.22 73.52-168.42 81.79-11.92 1.57-20.94 2.24-25.88 2.6zm-194.27-501.1s2.3-57.35 32.06-83.08c0 0 10.37 11.62 17.54 37.47 3.59 13.45 6.29 30.58 6.29 51.8v401.71c-19.76-9.62-38.51-18.73-55.89-25.6zm422.33-100v166.61c-16.69-7.26-31.91-12.95-44.25-17.18v-156.84s0-43.53 25.76-55.1c0 0 8.89 11.07 14.47 31.08 2.34 8.87 4.02 19.39 4.02 31.43zm78.56 31v177.09c-14.65-9.88-29.7-18.96-44.38-26.61.03-25.98.13-126.87.13-160.68 0-39.05 24.04-56.78 24.04-56.78 7.95 5.15 12.86 15.33 15.87 26.3 5.02 19.42 4.34 40.68 4.34 40.68zm-565.38-41.2s9.55 9.04 16.01 32.75c3.1 11.93 5.4 27.41 5.4 47.12v396.11c-24.91-9.06-48.62-15.25-51.91-16.09v-382.16c.01 0-2.25-46.12 30.5-77.73z"/></g></svg>