<?xml version="1.0" encoding="utf-8"?>
<!-- Generator: Adobe Illustrator 24.2.3, SVG Export Plug-In . SVG Version: 6.00 Build 0)  -->
<svg version="1.1" id="LEXINGTON_SPORTING_CLUB_by_Christopher_Payne"
	 xmlns="http://www.w3.org/2000/svg" xmlns:xlink="http://www.w3.org/1999/xlink" x="0px" y="0px" viewBox="0 0 2109.64 3286.54"
	 style="enable-background:new 0 0 2109.64 3286.54;" xml:space="preserve">
<style type="text/css">
	.st0{fill:#003A0E;}
	.st1{fill:#00FF1E;}
	.st2{fill:#00EA1F;}
</style>
<g>
	<path class="st0" d="M1976.44,125.94H125.54v1762.98c-0.44,22.34-0.38,203.44,105.48,441.17
		c63.56,142.76,152.67,277.73,264.84,401.18c138.43,152.34,312.62,287.45,517.71,401.59l37.42,19.82l37.41-19.82
		c205.1-114.13,379.28-249.24,517.71-401.59c112.18-123.45,201.28-258.42,264.85-401.17c105.84-237.72,105.91-418.83,105.48-441.18
		V125.94z"/>
	<path class="st1" d="M1498.58,1056.09c0.08-134.74-63.08-220-145.41-271.27c16.25-52.17-16.91-85.35-16.91-85.35l-50.75,47.79
		l-46.64-25.12c0,0-201.36,73.95-433.54,36.92l-35.94,89l63.94,18.29l7.12,26.26l-67.07-2.77l4.29,25.4l159.37,69.86l35.36-50.29
		c0,0-3.89,79.3,83.72,100.96c0,0,69.39,12.34,105.95-48.81l22.12,20.22l-20.68,78.57c0,0-59.8,43.38-150.55,46.45
		c-47.35,18.54-125.48,59.51-188.52,142.86c-8.26,10.48-16.11,21.83-23.36,34.14c-26.97,43.65-45.48,98.85-59,163.63l-296.79-0.5
		l-46.3-31.52l-89.77,44.52v318.35c-1.4,51.84,25.85,100.48,25.85,100.48l111.04-58.06l-63.12-60.3
		c57.54-96.7,43.98-197.59,39.3-216.6h54.04c112.19,91.9,233.7,98.72,286.8,98.74c0.06,0.13,2.12,6.26,2.18,6.4
		c31.22,77.76,76.22,147.76,159.29,206.19l0.18,221.79c-12.26,137.79,79.74,216.79,79.74,216.79s41,46,115.37,65.61
		c-129.37,151.39-89.42,308.74-89.42,308.74l-71.64-0.98c-1.38-1.14-46.21,99.37-50.34,108.63h199.16
		c-0.13-29.08-0.15-105-0.24-104.99l54.35-0.1c0,0-60.24-206.9,160.51-293.62c0,0,15.61-3.99,15.54-5.84l0.59-64.14
		c0,0-102.63-63.18-112.57-196.01l3.07-2.24C1338.7,2118,1423,2023.4,1423,1909.1c0-84.05-45.58-157.45-113.37-196.84
		c-9.7-5.64-19.06-11.87-27.71-19.02c-57.78-47.72-114.31-130.62-78.4-251.31c7.98-26.83,42.41-76.12,42.41-76.12
		c0.45-0.39,52.4,37.86,52.4,37.86c72.73-75.26,72.41-161.39,72.41-161.39l58.56,25.79c50.2-117.97,12.99-209.88,12.99-209.88
		L1498.58,1056.09z M1083.68,849.74l-27.5-40.73c51.69-8.41,94.25-16.66,94.25-16.66l2.03,37.2L1083.68,849.74z"/>
	<path class="st1" d="M694.22,2081.77v-87.97l132.46,128.65v-200.74c0,0-51.17-41.62-97.23-114.06c0,0-0.9-0.34-2.58-0.97
		c-61.89-2.88-122.2-15.38-179.88-37.3v239.17c0,0-3.49,85.53,66.12,144l118.23,114.4l-2.95,0.94c0,0-97.88-4.81-181.41,52.5
		l-57.89-69.15l-84.84,41.03c0,0,25.41,68.04,56.5,103.17l65.02-0.21l40.98,37.34c47.76-40.48,102.11-61.17,166.18-61.17
		c51.56,0,103.58,20.69,137.79,41.44l30.25-50.53c0,0-58.46-64.21-74.05-154.21L694.22,2081.77z"/>
	<path class="st1" d="M1831.49,1170.06c-25.99-39.96-83.59-80.96-128.99-80.96c-58,0-153.97,51.28-193,145.58
		c-37,89.42-13.2,152.93-13.2,152.93l-60.8-27.51c-35,60-51,158,12,237c2.46,3.09,3.39,5.34,4,5c-0.27-0.17-48,1-99,21l-3,2l12,7
		c99,61,166,160,161.04,286.67c-3.9,99.71-44.04,205.33-185.87,279.29c89.7,18.15,145.98,0.27,207.89-27.22
		c95.27-42.29,165.82-126.76,188.07-228.59c1.98-9.09,3.63-18.47,4.88-28.16c9.81-76.02-7.04-142.29-37-199
		c-28-53-45-48-45.08-135.7c-0.07-81.74,29.9-122.34,53.08-147.3c21-25,37.99-32.68,37.99-32.68c-55.7-39.1-92.94-31.46-92.94-31.46
		C1646.57,1158,1831.49,1170.06,1831.49,1170.06z"/>
	<path class="st1" d="M770.29,1195.74c0,0-147.78-44.64-205.97-212.84H309.66l-0.6,111.05l0.6,71.9c0,0,2.81,56.49,22.44,102.72
		l114.22-58.93l-65.53-60.2c0,0,29.7-44.35,29.86-64.39h93.72c0,0-7.88,193.05,167.13,293.31
		C671.51,1378.36,693.5,1281.1,770.29,1195.74z"/>
	<g>
		<path class="st2" d="M1107.73,2801.1c0-0.15,0-0.25,0-0.28l-51.72-59.59l-64.5-0.13l-82.85,60H1107.73z"/>
		<path class="st2" d="M1337.36,2397.17c0.28-0.22,0.44-0.44,0.43-0.62l0.59-64.14c0,0-0.06-0.03-0.14-0.08l-72.58,37.95
			L1337.36,2397.17z"/>
		<path class="st2" d="M1831.49,1170.06c-25.99-39.96-83.59-80.96-128.99-80.96c-58,0-153.97,51.28-193,145.58
			c-31.8,76.84-18.69,134.55-14.38,149.27c0.86,2.05,1.37,3.15,1.37,3.15l24.93,125.87c14.99-67.67,57.32-111.09,57.32-111.09
			s-36.85-127.55,45.04-213.96c77.38-81.65,194.7-24.43,207.39-17.87C1831.38,1170.05,1831.49,1170.06,1831.49,1170.06z"/>
		<path class="st2" d="M1653.55,1367.96c-0.01-0.43-16.05,24.14-74.94,33.15c0,0,36.17,36.56,68.93,20.1
			c29.46-14.8,74.55-28.63,98.23-22.3C1690.46,1360.39,1653.55,1367.96,1653.55,1367.96z"/>
		<path class="st2" d="M1268.25,843.94c0,0,69.24-86.43,68.34-144.12c-0.22-0.23-0.34-0.35-0.34-0.35l-50.75,47.79l-0.89-0.48
			l-9.79,9.57L1268.25,843.94z"/>
		<path class="st2" d="M1548.49,1675.08l-198.94-49.96l11.96,6.98c99,61,166,160,161.04,286.67
			c-3.9,99.71-44.04,205.33-185.88,279.29c0.83,0.17,1.64,0.31,2.47,0.47c58.89-5.91,270.48-37.85,298.63-193.46
			C1676.69,1789.91,1548.49,1675.08,1548.49,1675.08z"/>
		<path class="st2" d="M1548.49,1675.08c-45.69-100.4-27.06-163.76-27.06-163.76c-60.83-8.73-81.13-118.3-85.88-151.2l-0.05-0.02
			c-35,60-51,158,12,237c1.35,1.69,2.23,3.12,2.86,4.02c0.79,0.52,1.23,0.77,1.23,0.77S1549.19,1676.62,1548.49,1675.08z"/>
		<path class="st2" d="M654.07,1901.39l-107.09-131.99v239.17c0,0-3.49,85.53,66.12,144l118.23,114.4l36.87,36.65l7-63.19
			l-123.18-127.14C652.03,2113.29,582.42,1993.96,654.07,1901.39z"/>
		<polygon class="st2" points="826.67,2121.74 826.67,1922.12 761.98,1968.9 653.42,1900.56 694.56,1994.14 826.67,2122.46 
			826.67,2122.27 		"/>
		<path class="st2" d="M445.96,1846.15l-88.5-19.17l-0.3-0.72c-20.47-32.92-7.19-93.64-7.19-93.64
			c20.47-74.06,20.47-196.84,20.47-196.84l-61.24-50.18v318.07c-1.4,51.84,25.85,100.48,25.85,100.48l0.14-0.06l0,0l-0.02,0.01
			L445.96,1846.15z"/>
		<path class="st2" d="M1498.57,1055.23c-9.18-21.45-54.89-105.98-170.24-95.29c3.96,13.87,6.85,27.91,8.66,42.03
			c75.09,1.22,105.28,56.22,105.28,56.22l56.29-2.1C1498.58,1055.8,1498.57,1055.52,1498.57,1055.23z"/>
		<path class="st2" d="M1324.76,1124.44c-4.7,13.59-10.54,26.82-17.46,39.64c48.83,19.34,60.94,63.36,63.69,78.31l57.63,25.37
			C1428.5,1245.08,1421.73,1156.17,1324.76,1124.44z"/>
		<path class="st2" d="M1246.62,1366.19c6.17,3.95,51.71,37.48,51.71,37.48c0.07-0.08,0.14-0.15,0.22-0.23
			c6.64-20.67,22.76-94.27-57.05-157.54c-17.36,15.3-32.88,25.7-42.22,31.42C1242.42,1315.96,1246.5,1354.13,1246.62,1366.19z"/>
		<path class="st2" d="M371,1031.38l164.21,2.18l29.09-50.66H309.66l0,0.49l0-0.33l-0.6,110.9l0.6,71.9c0,0,2.8,56.47,22.43,102.69
			v0c-0.02-0.06-0.05-0.11-0.07-0.17c0.03,0.06,0.05,0.13,0.08,0.19l114.22-58.93l-0.35-0.33l-82.35-11.4
			c-0.5-0.62-0.96-1.28-1.36-1.98c-22.79-40-8.28-67.88-0.23-96.17C369.62,1073.04,370.86,1036.53,371,1031.38z"/>
		<path class="st2" d="M770.04,1195.66c-6.27,0.47-15.16,1.33-26.03,2.89c-24.92,3.6-62.13,12.14-104.76,28.32
			c0.18-0.07-92.16-59.35-104.11-193.49l-30.89,51.66h0.13c0,0-7.6,186.31,158.08,287.93l0.05,0.12l1.77,0.98
			c2.12,1.29,4.27,2.56,6.45,3.82c-0.04-0.1-0.09-0.21-0.13-0.31l0.24,0.14c0.05,0.11,0.09,0.21,0.14,0.32
			c0.18,0.1,0.35,0.21,0.53,0.31c0,0,21.99-97.26,98.77-182.62C770.29,1195.74,770.18,1195.71,770.04,1195.66z"/>
		<path class="st2" d="M900.9,2362.42l-45.29,1.08l-87.94-59.65c0,0-111.54,2.82-189.34,48.08l-0.01,0.06l-89.95-7.03
			c-16.55-26.2-20.86-40.86-20.86-40.86l-62.9-11.98l-0.09,0.04c0.02,0.35,0.05,0.69,0.08,1.04c3.12,8.14,27.17,69.5,56.15,102.26
			l64.45-0.21l0.01,0l42.31,37.85l0.19-1.31c47.53-39.95,101.58-60.38,165.23-60.38c51.36,0,103.16,20.53,137.39,41.19l0-0.01
			c0.21,0.13,0.38,0.24,0.41,0.25L900.9,2362.42z"/>
		<g>
			<path class="st2" d="M1112.33,2271.33c-42.79-44.14-65.13-104.51-59.44-165.72c12.07-129.69,139.33-191.06,139.33-191.06
				c-65.51-185.16-202.4-173.64-222.87-383.48c-20.47-209.84,208.82-271.56,208.82-271.56s135.12-69.95,135.12-222.19
				s-135.12-242.76-135.12-242.76l-10.88-8.64c0,0-0.02,45.31,1.61,46.08c73.73,34.97,35.08,107.8,35.08,107.8
				c-90.08,0-94.17,20.57-131.02,28.8c-36.85,8.23-89.28-102.04-89.28-102.04H967.3l2.53,55c-42.33-10.47-86.65-8.5-127.41-8.5
				c-47.69,0-65.78-19.14-69.04-23.13l4.28,25.3l159.37,69.86l35.36-50.29c0,0-3.89,79.3,83.72,100.96c0,0,69.39,12.34,105.95-48.81
				l22.12,20.22l-20.68,78.57c0,0-59.8,43.38-150.55,46.45c-47.35,18.54-125.48,59.51-188.52,142.86
				c-8.26,10.48-16.11,21.83-23.36,34.14c-26.18,42.37-44.39,95.63-57.8,157.96c-0.17,3.57-0.17,5.49-0.17,5.49l99.36,95.41
				l-0.47,0.59l0,0l0.43-0.54c-212.91,32.92-339.84-41.15-339.84-41.15c-52.14,4.03-78.97,41.55-80.26,42.24h53.99
				c111.86,91.63,232.98,98.68,286.32,98.74l0,0c0.14,0,0.28,0,0.42,0l0.08,0.07c0.23,0.65,2.1,6.19,2.15,6.33
				c31.22,77.76,76.22,147.76,159.29,206.19l0.18,221.79c0,157.79,79.74,216.79,79.74,216.79s41,46,115.37,65.61
				c-126.33,147.83-91.21,301.34-89.49,308.48c0.26,0.44,0.39,0.66,0.39,0.66l25.44,48.38l38.46-101.04
				c-3.46-207.37,169.72-270.74,169.72-270.74C1196.33,2347.37,1144.87,2304.9,1112.33,2271.33z"/>
			<path class="st2" d="M422.32,1569.2h-0.05C422.27,1569.22,422.29,1569.21,422.32,1569.2z"/>
		</g>
	</g>
	<g>
		<path class="st0" d="M1508.95,3015.3v-48.84h-17.44v-9.95h46.72v9.95h-17.4v48.84H1508.95z"/>
		<path class="st0" d="M1545.72,3015.3v-58.79h17.76l10.67,40.1l10.55-40.1h17.8v58.79h-11.03v-46.28l-11.67,46.28h-11.43
			l-11.63-46.28v46.28H1545.72z"/>
	</g>
	<path class="st1" d="M830.04,2602.26h-67.68v-50.05c6.83-1.43,12.21-2.11,18.35-2.11c5.58,0,11.38,0.55,16.77,1.88v22.29h32.66
		v-45.34l-0.93-0.38c-14.88-4.78-31.12-7.93-48.11-7.93c-17.98,0-36.11,2.94-51.69,8.27l0.51,106.31h67.56v51.13
		c-5.13,1.23-13.36,1.99-18.55,1.99c-6.53,0-10.77-0.89-16.83-2.54v-24.42h-32.27l-0.07,51.46c15.5,5.26,33.29,8.29,51.17,8.29
		c17,0,34.52-3.41,49.4-8.19L830.04,2602.26z"/>
	<path class="st1" d="M1384.83,2640.76l-32.66-0.06v45.62c-5.13,1.23-11.36,1.99-16.55,1.99c-6.53,0-11.61-0.89-17.67-2.54
		l-0.13-133.56c6.06-1.43,11.83-1.98,17.96-1.98c5.58,0,11,0.42,16.39,1.75v39.03h32.66v-62.22l-0.93-0.38
		c-14.88-4.78-31.12-7.8-48.11-7.8c-17.98,0-35.11,2.94-50.69,8.27l0,183.93c15.5,5.26,32.65,8.29,50.52,8.29
		c17,0,34.52-3.41,49.4-8.19L1384.83,2640.76z"/>
	<g>
		<polygon class="st1" points="439.11,627.61 549.39,627.81 549.39,580.14 486.78,580.14 486.78,488.73 549.39,488.73 
			549.39,441.06 486.78,441.06 486.78,355.88 549.39,355.88 549.39,308.21 439.11,308.21 		"/>
		<polygon class="st1" points="420.6,644.4 356.17,644.4 356.17,308.21 308.5,308.21 308.5,691.23 420.6,691.23 		"/>
		<polygon class="st1" points="594.95,503.04 594.95,628.23 640.99,628.23 640.99,523.15 666.87,499.08 692.52,523.15 
			692.52,628.23 738.57,628.23 738.57,503.64 697.69,466.37 738.5,431.31 738.57,308.21 692.52,308.21 692.52,409.95 666.75,433.96 
			640.99,409.52 640.99,308.21 594.95,308.21 594.95,430.62 632.57,466.67 595.02,502.96 		"/>
		<polygon class="st1" points="841,628.23 841,340.46 841,308.21 793.33,308.21 793.33,341.28 793.33,628.23 		"/>
		<polygon class="st1" points="939.24,628.23 939.24,381.03 992.05,442.32 992.05,628.23 1037.51,628.23 1037.51,308.47 
			992.05,308.47 992.05,370.66 939.24,308.47 893.78,308.47 893.78,628.23 		"/>
		<polygon class="st1" points="1698.23,691.33 1698.23,381.19 1751.04,442.48 1751.04,691.33 1796.5,691.33 1796.5,308.63 
			1751.04,308.63 1751.04,370.82 1698.23,308.63 1652.77,308.63 1652.77,691.33 		"/>
		<polygon class="st1" points="1319.42,628.23 1367.09,628.23 1367.09,355.88 1416.32,355.88 1416.32,308.21 1272.25,308.21 
			1272.25,355.88 1319.42,355.88 		"/>
		<path class="st1" d="M1160.66,438.59v47.62h23.94v95.77c-8.16,1.36-16.5,2.04-24.84,2.04c-8.3,0-16.59-0.68-24.71-2.02V354.73
			c8.08-1.33,16.33-2,24.58-2c8.35,0,16.68,0.69,24.84,2.04v51.49h47.62l-0.13-85.96c-22.38-8.89-46.78-13.78-72.33-13.78
			c-25.6,0-50.04,4.91-72.46,13.83l0.13,295.05c22.41,8.92,46.86,13.83,72.46,13.83c25.55,0,49.95-4.89,72.33-13.78l0.13-176.67
			v-0.19H1160.66z"/>
		<path class="st1" d="M1602.22,320.31c-22.38-8.89-46.78-13.78-72.33-13.78c-25.6,0-50.04,4.91-72.46,13.83l0.13,294.05
			c22.41,8.92,46.86,13.83,72.46,13.83c25.55,0,49.95-4.89,72.33-13.78L1602.22,320.31z M1505.31,581.01V354.73
			c8.08-1.33,16.33-2,24.58-2c8.3,0,16.59,0.68,24.71,2.02v131.46h0.13v94.8c-8.12,1.34-16.41,2.02-24.71,2.02
			C1521.72,583.04,1513.43,582.36,1505.31,581.01z"/>
	</g>
	<path class="st1" d="M1976.44,125.94v1762.98c0.44,22.35,0.37,203.46-105.48,441.18c-63.56,142.75-152.67,277.73-264.84,401.17
		c-138.44,152.34-312.62,287.45-517.71,401.59l-37.41,20.82l-37.42-20.82c-205.1-114.13-379.28-249.25-517.71-401.59
		c-112.17-123.44-201.28-258.42-264.84-401.18c-105.86-237.74-105.92-418.83-105.48-441.18V125.94H1976.44 M2020.44,81.94h-44
		H125.54h-44v44v1762.57c-0.27,15.05,0.01,68.03,13.5,147.58c7.81,46.07,18.77,93.27,32.56,140.3
		c16.87,57.54,38.15,115.27,63.23,171.6c65.47,147.04,157.14,285.95,272.47,412.87c141.67,155.89,319.61,293.98,528.88,410.44
		l37.41,20.82l21.4,11.91l21.4-11.91l37.41-20.82c209.28-116.46,387.22-254.56,528.88-410.44
		c115.33-126.92,207.01-265.83,272.48-412.87c25.08-56.32,46.35-114.06,63.22-171.59c13.79-47.02,24.74-94.23,32.56-140.3
		c13.49-79.54,13.77-132.53,13.5-147.58V125.94V81.94L2020.44,81.94z"/>
</g>
</svg>
